# xmcd
#
# Track frame offsets:
#       182
#       20640
#       50670
#       88292
#       117175
#       145417
#
# Disc length: 2546 seconds
#
# Revision: 10
# Processed by: cddbd v1.5.1PL0 Copyright (c) Steve Scherf et al.
# Submitted via: WaveLab 4.01
#
DISCID=5509f006
DTITLE=Peeter Volkonski - The Book of Secrets
DYEAR=1994
DGENRE=Satiric Alternative Blues
TTITLE0=Arriving In America ( The Book Of Secrets)
TTITLE1=Toilet Seat Danger
TTITLE2=Buying A Piano
TTITLE3=Instant Revenge Against Obscene Phone Caller and Putting Off Unwanted Guests
TTITLE4=What Women Hate About What Men Wear
TTITLE5=Leaving America
EXTD=
EXTT0=
EXTT1=
EXTT2=
EXTT3=
EXTT4=
EXTT5=
PLAYORDER=
